<svg width="72" height="70" viewBox="0 0 72 70" fill="none" xmlns="http://www.w3.org/2000/svg">
<path d="M3 29.3548V16.4493L36.6336 1.10281L69 16.4392V32.3656V50.6959L36.6241 68.8631L3 51.3292V29.3548Z" fill="#EF325A" stroke="white" stroke-width="2"/>
<path d="M10.2228 32.36V30.38H10.5228C10.7094 30.3733 10.8728 30.2967 11.0128 30.15C11.1594 29.9967 11.2828 29.75 11.3828 29.41C11.4894 29.0633 11.5728 28.6 11.6328 28.02C11.6994 27.44 11.7461 26.72 11.7728 25.86L11.8228 23.9H16.0728V30.38H16.9228V32.36H16.3028V31H10.8428V32.36H10.2228ZM11.5228 30.38H15.3728V24.52H12.4628L12.4228 25.94C12.4028 26.84 12.3561 27.5933 12.2828 28.2C12.2161 28.8 12.1194 29.2767 11.9928 29.63C11.8661 29.9767 11.7094 30.2267 11.5228 30.38ZM20.303 31.1C19.803 31.1 19.3563 30.9767 18.963 30.73C18.5763 30.4833 18.273 30.1567 18.053 29.75C17.833 29.3367 17.723 28.89 17.723 28.41C17.723 27.9233 17.833 27.4767 18.053 27.07C18.2797 26.6567 18.5863 26.3267 18.973 26.08C19.3663 25.8267 19.8097 25.7 20.303 25.7C20.803 25.7 21.2463 25.8267 21.633 26.08C22.0263 26.3267 22.333 26.6567 22.553 27.07C22.7797 27.4767 22.893 27.9233 22.893 28.41C22.893 28.89 22.783 29.3367 22.563 29.75C22.343 30.1567 22.0363 30.4833 21.643 30.73C21.2563 30.9767 20.8097 31.1 20.303 31.1ZM18.413 28.42C18.413 28.8067 18.4963 29.16 18.663 29.48C18.8363 29.7933 19.0663 30.0433 19.353 30.23C19.6397 30.41 19.9563 30.5 20.303 30.5C20.6497 30.5 20.9663 30.4067 21.253 30.22C21.5397 30.0333 21.7697 29.78 21.943 29.46C22.1163 29.14 22.203 28.7867 22.203 28.4C22.203 28.0133 22.1163 27.66 21.943 27.34C21.7697 27.02 21.5397 26.7667 21.253 26.58C20.9663 26.3933 20.6497 26.3 20.303 26.3C19.963 26.3 19.6497 26.3967 19.363 26.59C19.0763 26.7767 18.8463 27.03 18.673 27.35C18.4997 27.67 18.413 28.0267 18.413 28.42ZM24.0203 31V25.79H24.7003V28.02H25.4803L27.2303 25.79H28.0103L26.0203 28.32L28.2603 31H27.4603L25.4803 28.65H24.7003V31H24.0203ZM28.7256 31.03V30.41C28.8989 30.41 29.0556 30.3633 29.1956 30.27C29.3423 30.1767 29.4689 30.0133 29.5756 29.78C29.6889 29.5467 29.7789 29.2233 29.8456 28.81C29.9123 28.3967 29.9556 27.8733 29.9756 27.24L30.0356 25.79H33.4156V31H32.7356V26.4H30.6356L30.6156 27.3C30.5823 28.2667 30.4923 29.02 30.3456 29.56C30.1989 30.1 29.9889 30.48 29.7156 30.7C29.4489 30.9133 29.1189 31.0233 28.7256 31.03ZM34.4989 29.5C34.4989 29.18 34.5923 28.9033 34.7789 28.67C34.9656 28.43 35.2223 28.2433 35.5489 28.11C35.8823 27.9767 36.2656 27.91 36.6989 27.91C36.9523 27.91 37.2156 27.9333 37.4889 27.98C37.7623 28.02 38.0056 28.0767 38.2189 28.15V27.71C38.2189 27.27 38.0889 26.92 37.8289 26.66C37.5689 26.4 37.2089 26.27 36.7489 26.27C36.4756 26.27 36.2023 26.3233 35.9289 26.43C35.6556 26.53 35.3723 26.68 35.0789 26.88L34.8189 26.4C35.1589 26.1667 35.4923 25.9933 35.8189 25.88C36.1456 25.76 36.4789 25.7 36.8189 25.7C37.4589 25.7 37.9656 25.8833 38.3389 26.25C38.7123 26.6167 38.8989 27.1233 38.8989 27.77V30.18C38.8989 30.36 38.9823 30.4533 39.1489 30.46V31C39.0023 31.02 38.8989 31.0267 38.8389 31.02C38.6723 31.0133 38.5456 30.96 38.4589 30.86C38.3723 30.76 38.3256 30.6533 38.3189 30.54L38.3089 30.16C38.0756 30.46 37.7723 30.6933 37.3989 30.86C37.0256 31.02 36.6456 31.1 36.2589 31.1C35.9189 31.1 35.6156 31.03 35.3489 30.89C35.0823 30.7433 34.8723 30.55 34.7189 30.31C34.5723 30.0633 34.4989 29.7933 34.4989 29.5ZM37.9889 29.9C38.1423 29.72 38.2189 29.5533 38.2189 29.4V28.64C37.7589 28.46 37.2789 28.37 36.7789 28.37C36.2923 28.37 35.8989 28.4667 35.5989 28.66C35.2989 28.8533 35.1489 29.1167 35.1489 29.45C35.1489 29.7367 35.2589 29.9967 35.4789 30.23C35.7056 30.4633 36.0189 30.58 36.4189 30.58C36.7456 30.58 37.0489 30.5167 37.3289 30.39C37.6156 30.2633 37.8356 30.1 37.9889 29.9ZM39.7882 32.21V30.39H39.8782C40.0782 30.39 40.2582 30.3033 40.4182 30.13C40.5782 29.9567 40.7082 29.6433 40.8082 29.19C40.9148 28.73 40.9782 28.08 40.9982 27.24L41.0482 25.79H44.4382V30.39H45.1382V32.21H44.5282V31H40.3882V32.21H39.7882ZM40.9082 30.39H43.7582V26.4H41.6582L41.6282 27.3C41.5948 28.2333 41.5182 28.94 41.3982 29.42C41.2782 29.8933 41.1148 30.2167 40.9082 30.39ZM46.1589 31V25.79H48.7589C49.0523 25.79 49.2989 25.8533 49.4989 25.98C49.6989 26.1 49.8489 26.26 49.9489 26.46C50.0556 26.6533 50.1089 26.8567 50.1089 27.07C50.1089 27.35 50.0389 27.6033 49.8989 27.83C49.7656 28.05 49.5756 28.2167 49.3289 28.33C49.6289 28.41 49.8723 28.5667 50.0589 28.8C50.2456 29.0333 50.3389 29.3067 50.3389 29.62C50.3389 30.04 50.1889 30.3767 49.8889 30.63C49.5956 30.8767 49.2189 31 48.7589 31H46.1589ZM46.8089 28.14H48.5789C48.8389 28.14 49.0489 28.0433 49.2089 27.85C49.3756 27.65 49.4589 27.4267 49.4589 27.18C49.4589 26.94 49.3789 26.73 49.2189 26.55C49.0656 26.37 48.8656 26.28 48.6189 26.28H46.8089V28.14ZM46.8089 30.51H48.7389C49.0056 30.51 49.2289 30.4133 49.4089 30.22C49.5889 30.02 49.6789 29.8 49.6789 29.56C49.6789 29.3 49.5923 29.0767 49.4189 28.89C49.2456 28.7033 49.0323 28.61 48.7789 28.61H46.8089V30.51ZM51.1005 29.5C51.1005 29.18 51.1938 28.9033 51.3805 28.67C51.5672 28.43 51.8238 28.2433 52.1505 28.11C52.4838 27.9767 52.8672 27.91 53.3005 27.91C53.5538 27.91 53.8172 27.9333 54.0905 27.98C54.3638 28.02 54.6072 28.0767 54.8205 28.15V27.71C54.8205 27.27 54.6905 26.92 54.4305 26.66C54.1705 26.4 53.8105 26.27 53.3505 26.27C53.0772 26.27 52.8038 26.3233 52.5305 26.43C52.2572 26.53 51.9738 26.68 51.6805 26.88L51.4205 26.4C51.7605 26.1667 52.0938 25.9933 52.4205 25.88C52.7472 25.76 53.0805 25.7 53.4205 25.7C54.0605 25.7 54.5672 25.8833 54.9405 26.25C55.3138 26.6167 55.5005 27.1233 55.5005 27.77V30.18C55.5005 30.36 55.5838 30.4533 55.7505 30.46V31C55.6038 31.02 55.5005 31.0267 55.4405 31.02C55.2738 31.0133 55.1472 30.96 55.0605 30.86C54.9738 30.76 54.9272 30.6533 54.9205 30.54L54.9105 30.16C54.6772 30.46 54.3738 30.6933 54.0005 30.86C53.6272 31.02 53.2472 31.1 52.8605 31.1C52.5205 31.1 52.2172 31.03 51.9505 30.89C51.6838 30.7433 51.4738 30.55 51.3205 30.31C51.1738 30.0633 51.1005 29.7933 51.1005 29.5ZM54.5905 29.9C54.7438 29.72 54.8205 29.5533 54.8205 29.4V28.64C54.3605 28.46 53.8805 28.37 53.3805 28.37C52.8938 28.37 52.5005 28.4667 52.2005 28.66C51.9005 28.8533 51.7505 29.1167 51.7505 29.45C51.7505 29.7367 51.8605 29.9967 52.0805 30.23C52.3072 30.4633 52.6205 30.58 53.0205 30.58C53.3472 30.58 53.6505 30.5167 53.9305 30.39C54.2172 30.2633 54.4372 30.1 54.5905 29.9ZM56.9597 31V25.8H57.6397V30.08L60.8097 25.79H61.4197V31H60.7397V26.79L57.6197 31H56.9597ZM59.1997 25.13C58.7464 25.13 58.3964 25.0233 58.1497 24.81C57.9031 24.5967 57.7797 24.3267 57.7797 24H58.2797C58.2797 24.2 58.3531 24.3667 58.4997 24.5C58.6531 24.6333 58.8864 24.7 59.1997 24.7C59.5064 24.7 59.7297 24.6367 59.8697 24.51C60.0164 24.3833 60.0997 24.2133 60.1197 24H60.6097C60.6097 24.3267 60.4864 24.5967 60.2397 24.81C59.9931 25.0233 59.6464 25.13 59.1997 25.13ZM15.5095 43V37.79H19.6995V43H19.0195V38.4H16.1895V43H15.5095ZM23.8631 43.1C23.4298 43.1 23.0398 42.9867 22.6931 42.76C22.3531 42.5333 22.0831 42.2533 21.8831 41.92V45.13H21.2031V37.79H21.8131V38.8C22.0198 38.4733 22.2931 38.21 22.6331 38.01C22.9798 37.8033 23.3531 37.7 23.7531 37.7C24.1131 37.7 24.4431 37.7767 24.7431 37.93C25.0431 38.0767 25.3031 38.2767 25.5231 38.53C25.7498 38.7833 25.9231 39.0733 26.0431 39.4C26.1631 39.72 26.2231 40.0533 26.2231 40.4C26.2231 40.8867 26.1231 41.3367 25.9231 41.75C25.7298 42.1567 25.4531 42.4833 25.0931 42.73C24.7398 42.9767 24.3298 43.1 23.8631 43.1ZM23.6731 42.5C24.0531 42.5 24.3798 42.4 24.6531 42.2C24.9331 41.9933 25.1498 41.73 25.3031 41.41C25.4565 41.09 25.5331 40.7533 25.5331 40.4C25.5331 40.0267 25.4465 39.68 25.2731 39.36C25.0998 39.04 24.8665 38.7833 24.5731 38.59C24.2865 38.3967 23.9598 38.3 23.5931 38.3C23.3665 38.3 23.1265 38.36 22.8731 38.48C22.6265 38.5933 22.4065 38.75 22.2131 38.95C22.0265 39.1433 21.9165 39.3567 21.8831 39.59V41.19C22.0365 41.5567 22.2765 41.8667 22.6031 42.12C22.9298 42.3733 23.2865 42.5 23.6731 42.5ZM29.595 43.1C29.095 43.1 28.6483 42.9767 28.255 42.73C27.8683 42.4833 27.565 42.1567 27.345 41.75C27.125 41.3367 27.015 40.89 27.015 40.41C27.015 39.9233 27.125 39.4767 27.345 39.07C27.5717 38.6567 27.8783 38.3267 28.265 38.08C28.6583 37.8267 29.1017 37.7 29.595 37.7C30.095 37.7 30.5383 37.8267 30.925 38.08C31.3183 38.3267 31.625 38.6567 31.845 39.07C32.0717 39.4767 32.185 39.9233 32.185 40.41C32.185 40.89 32.075 41.3367 31.855 41.75C31.635 42.1567 31.3283 42.4833 30.935 42.73C30.5483 42.9767 30.1017 43.1 29.595 43.1ZM27.705 40.42C27.705 40.8067 27.7883 41.16 27.955 41.48C28.1283 41.7933 28.3583 42.0433 28.645 42.23C28.9317 42.41 29.2483 42.5 29.595 42.5C29.9417 42.5 30.2583 42.4067 30.545 42.22C30.8317 42.0333 31.0617 41.78 31.235 41.46C31.4083 41.14 31.495 40.7867 31.495 40.4C31.495 40.0133 31.4083 39.66 31.235 39.34C31.0617 39.02 30.8317 38.7667 30.545 38.58C30.2583 38.3933 29.9417 38.3 29.595 38.3C29.255 38.3 28.9417 38.3967 28.655 38.59C28.3683 38.7767 28.1383 39.03 27.965 39.35C27.7917 39.67 27.705 40.0267 27.705 40.42ZM35.7123 43.1C34.8723 43.1 34.2356 42.8433 33.8023 42.33C33.3756 41.81 33.1623 41.0933 33.1623 40.18C33.1623 39.5333 33.2156 38.9867 33.3223 38.54C33.4289 38.0933 33.5856 37.7233 33.7923 37.43C33.9989 37.1367 34.2523 36.9 34.5523 36.72C34.8589 36.5333 35.2089 36.38 35.6023 36.26L37.7923 35.54L37.8523 36.13L35.7423 36.82C35.3423 36.96 35.0056 37.13 34.7323 37.33C34.4656 37.53 34.2556 37.7933 34.1023 38.12C33.9556 38.44 33.8623 38.85 33.8223 39.35C33.9889 38.9633 34.2523 38.6667 34.6123 38.46C34.9789 38.2467 35.3989 38.14 35.8723 38.14C36.3789 38.14 36.8089 38.2433 37.1623 38.45C37.5223 38.6567 37.7956 38.9433 37.9823 39.31C38.1689 39.6767 38.2623 40.1 38.2623 40.58C38.2623 41.34 38.0423 41.95 37.6023 42.41C37.1689 42.87 36.5389 43.1 35.7123 43.1ZM35.7123 42.5C36.3056 42.5 36.7623 42.33 37.0823 41.99C37.4089 41.6433 37.5723 41.1833 37.5723 40.61C37.5723 40.05 37.4123 39.5933 37.0923 39.24C36.7723 38.8867 36.3123 38.71 35.7123 38.71C35.3656 38.71 35.0523 38.7833 34.7723 38.93C34.4923 39.0767 34.2689 39.29 34.1023 39.57C33.9423 39.85 33.8623 40.1967 33.8623 40.61C33.8623 41.1567 34.0189 41.61 34.3323 41.97C34.6523 42.3233 35.1123 42.5 35.7123 42.5ZM38.9063 43.03V42.41C39.0796 42.41 39.2363 42.3633 39.3763 42.27C39.5229 42.1767 39.6496 42.0133 39.7563 41.78C39.8696 41.5467 39.9596 41.2233 40.0263 40.81C40.0929 40.3967 40.1363 39.8733 40.1563 39.24L40.2163 37.79H43.5963V43H42.9163V38.4H40.8163L40.7963 39.3C40.7629 40.2667 40.6729 41.02 40.5263 41.56C40.3796 42.1 40.1696 42.48 39.8963 42.7C39.6296 42.9133 39.2996 43.0233 38.9063 43.03ZM47.3496 43.1C46.8496 43.1 46.4029 42.9767 46.0096 42.73C45.6163 42.4833 45.3063 42.1533 45.0796 41.74C44.8529 41.3267 44.7396 40.8733 44.7396 40.38C44.7396 39.8933 44.8496 39.4467 45.0696 39.04C45.2963 38.6333 45.6063 38.31 45.9996 38.07C46.3929 37.8233 46.8396 37.7 47.3396 37.7C47.8529 37.7 48.3029 37.8233 48.6896 38.07C49.0763 38.3167 49.3763 38.6433 49.5896 39.05C49.8096 39.45 49.9196 39.89 49.9196 40.37C49.9196 40.4767 49.9163 40.5667 49.9096 40.64H45.4496C45.4829 41.0133 45.5896 41.3467 45.7696 41.64C45.9496 41.9267 46.1796 42.1567 46.4596 42.33C46.7396 42.4967 47.0463 42.58 47.3796 42.58C47.7196 42.58 48.0396 42.4933 48.3396 42.32C48.6396 42.1467 48.8529 41.92 48.9796 41.64L49.5696 41.8C49.4629 42.0533 49.2963 42.28 49.0696 42.48C48.8496 42.6733 48.5929 42.8267 48.2996 42.94C48.0063 43.0467 47.6896 43.1 47.3496 43.1ZM45.4296 40.15H49.2796C49.2529 39.7767 49.1496 39.4467 48.9696 39.16C48.7896 38.8667 48.5596 38.64 48.2796 38.48C47.9996 38.3133 47.6896 38.23 47.3496 38.23C47.0096 38.23 46.6996 38.3133 46.4196 38.48C46.1396 38.64 45.9096 38.8667 45.7296 39.16C45.5563 39.4467 45.4563 39.7767 45.4296 40.15ZM50.9588 43V37.79H51.6588L53.7288 41.38L55.8088 37.79H56.4788V43H55.8288V38.81L53.9488 42.07H53.5088L51.6088 38.81V43H50.9588ZM35.6602 52.72V47.83H36.3402V52.72H35.6602ZM35.6602 55V53.88H36.3402V55H35.6602Z" fill="white"/>
</svg>
